<?xml version="1.0" encoding="UTF-8" standalone="no"?>
<svg
   xmlns:dc="http://purl.org/dc/elements/1.1/"
   xmlns:cc="http://creativecommons.org/ns#"
   xmlns:rdf="http://www.w3.org/1999/02/22-rdf-syntax-ns#"
   xmlns:svg="http://www.w3.org/2000/svg"
   xmlns="http://www.w3.org/2000/svg"
   version="1.0"
   width="554"
   height="554">
  <defs>
    <filter
       x="-0.288"
       y="-0.288"
       width="1.576"
       height="1.576"
       color-interpolation-filters="sRGB"
       id="filter3974">
      <feGaussianBlur
         stdDeviation="12" />
    </filter>
  </defs>
  <circle
     cx="277"
     cy="277"
     r="270"
     style="fill:#e8e8e8;stroke:#7f7f7f;stroke-width:14" />
  <path
     d="m 295.04698,382.84404 c -0.097,-0.87217 -2.4524,-5.11638 -4.16397,-9.47606 -1.71156,-4.35968 -3.00149,-6.92731 -3.1465,-11.77608 -0.14501,-4.84877 -0.0326,-10.41773 3.05149,-17.72843 3.27015,-9.00897 9.50493,-16.05488 16.06657,-22.83557 12.90423,-12.44314 30.69667,-26.62452 43.35416,-36.73695 12.65751,-10.11243 19.46481,-15.33789 29.61946,-24.54718 10.15465,-9.2093 26.76601,-26.63722 34.90016,-43.66747 8.13415,-17.03025 10.21429,-35.45027 9.46159,-50.60004 -0.7527,-15.14977 -1.01992,-16.96214 -7.76771,-32.31295 -6.74779,-15.35081 -18.99748,-29.79958 -37.95558,-42.37418 -18.95808,-12.57461 -51.6898,-17.98234 -67.94639,-17.62351 -16.2566,0.35883 -32.68617,0.31568 -51.07736,4.73379 -18.39121,4.41811 -37.63923,15.89567 -50.47253,26.27173 -5.25255,26.82831 -13.02391,56.37147 -20.91339,82.82734 l 3.17973,5.32771 19.92496,1.89539 c 1.67165,-1.59315 6.34274,-13.20542 10.76988,-23.59822 4.42712,-10.39281 5.90586,-12.8809 10.06824,-18.93728 4.16239,-6.05637 20.56695,-15.94902 34.12621,-16.61009 13.55926,-0.66107 35.42801,0.9604 48.42095,8.71129 12.99294,7.75089 20.26494,20.23278 22.45386,41.72301 2.18892,21.49022 -18.46132,52.48298 -31.06448,67.70737 -12.53207,15.13849 -35.08701,44.78765 -40.56891,55.03551 -5.4819,10.24785 -8.59064,19.07857 -9.81148,29.76803 -1.22084,10.68946 0.79933,26.71757 5.8387,36.54222 2.1738,4.238 8.93313,16.58945 10.46939,19.17711 l 23.18295,-10.89649 z"
     style="opacity:0.76;filter:url(#filter3974)" />
  <path
     d="m 279.04698,366.84404 c -0.097,-0.87217 -2.4524,-5.11638 -4.16397,-9.47606 -1.71156,-4.35968 -3.00149,-6.92731 -3.1465,-11.77608 -0.14501,-4.84877 -0.0326,-10.41773 3.05149,-17.72843 3.27015,-9.00897 9.50493,-16.05488 16.06657,-22.83557 12.90423,-12.44314 30.69667,-26.62452 43.35416,-36.73695 12.65751,-10.11243 19.46481,-15.33789 29.61946,-24.54718 10.15465,-9.2093 26.76601,-26.63722 34.90016,-43.66747 8.13415,-17.03025 10.21429,-35.45027 9.46159,-50.60004 -0.7527,-15.14977 -1.01992,-16.96214 -7.76771,-32.31295 -6.74779,-15.35081 -18.99748,-29.79958 -37.95558,-42.37418 -18.95808,-12.57461 -51.6898,-17.98234 -67.94639,-17.62351 -16.2566,0.35883 -32.68617,0.31568 -51.07736,4.73379 -18.39121,4.41811 -37.63923,15.89567 -50.47253,26.27173 -5.25255,26.82831 -13.02391,56.37147 -20.91339,82.82734 l 3.17973,5.32771 19.92496,1.89539 c 1.67165,-1.59315 6.34274,-13.20542 10.76988,-23.59822 4.42712,-10.39281 5.90586,-12.8809 10.06824,-18.93728 4.16239,-6.05637 20.56695,-15.94902 34.12621,-16.61009 13.55926,-0.66107 35.42801,0.9604 48.42095,8.71129 12.99294,7.75089 20.26494,20.23278 22.45386,41.72301 2.18892,21.49022 -18.46132,52.48298 -31.06448,67.70737 -12.53207,15.13849 -35.08701,44.78765 -40.56891,55.03551 -5.4819,10.24785 -8.59064,19.07857 -9.81148,29.76803 -1.22084,10.68946 0.79933,26.71757 5.8387,36.54222 2.1738,4.238 8.93313,16.58945 10.46939,19.17711 l 23.18295,-10.89649 z"
     style="fill:#027abb" />
  <circle
     cx="283.62863"
     cy="472.55319"
     r="50"
     style="opacity:0.76;filter:url(#filter3974)" />
  <circle
     cx="267.62863"
     cy="456.55319"
     r="50"
     style="fill:#027abb" />
</svg>